<mxfile host="app.diagrams.net" modified="2023-05-30T09:12:41.641Z" agent="Mozilla/5.0 (Windows NT 10.0; Win64; x64) AppleWebKit/537.36 (KHTML, like Gecko) Chrome/113.0.0.0 Safari/537.36" etag="GGRzKJGZ6NTOwF497xiy" version="21.3.2" type="github">
  <diagram name="第 1 页" id="SBG9MmKvIH3pZvIKo2WB">
    <mxGraphModel dx="1500" dy="693" grid="1" gridSize="10" guides="1" tooltips="1" connect="1" arrows="1" fold="1" page="1" pageScale="1" pageWidth="827" pageHeight="1169" math="0" shadow="0">
      <root>
        <mxCell id="0" />
        <mxCell id="1" parent="0" />
        <mxCell id="kiv1RC2_XIZWGXxYF0Zl-3" value="" style="edgeStyle=orthogonalEdgeStyle;rounded=0;orthogonalLoop=1;jettySize=auto;html=1;" parent="1" source="kiv1RC2_XIZWGXxYF0Zl-1" target="kiv1RC2_XIZWGXxYF0Zl-2" edge="1">
          <mxGeometry relative="1" as="geometry" />
        </mxCell>
        <mxCell id="kiv1RC2_XIZWGXxYF0Zl-1" value="&lt;font style=&quot;font-size: 18px;&quot;&gt;start&lt;/font&gt;" style="rounded=1;whiteSpace=wrap;html=1;" parent="1" vertex="1">
          <mxGeometry x="350" y="120" width="190" height="40" as="geometry" />
        </mxCell>
        <mxCell id="kiv1RC2_XIZWGXxYF0Zl-5" value="" style="edgeStyle=orthogonalEdgeStyle;rounded=0;orthogonalLoop=1;jettySize=auto;html=1;" parent="1" source="kiv1RC2_XIZWGXxYF0Zl-2" target="kiv1RC2_XIZWGXxYF0Zl-4" edge="1">
          <mxGeometry relative="1" as="geometry" />
        </mxCell>
        <mxCell id="kiv1RC2_XIZWGXxYF0Zl-2" value="&lt;font style=&quot;font-size: 18px;&quot;&gt;images,labels,lengths=zip(*batch)&lt;/font&gt;" style="rounded=0;whiteSpace=wrap;html=1;" parent="1" vertex="1">
          <mxGeometry x="280" y="190" width="330" height="50" as="geometry" />
        </mxCell>
        <mxCell id="kiv1RC2_XIZWGXxYF0Zl-7" value="" style="edgeStyle=orthogonalEdgeStyle;rounded=0;orthogonalLoop=1;jettySize=auto;html=1;" parent="1" source="kiv1RC2_XIZWGXxYF0Zl-4" target="kiv1RC2_XIZWGXxYF0Zl-6" edge="1">
          <mxGeometry relative="1" as="geometry" />
        </mxCell>
        <mxCell id="kiv1RC2_XIZWGXxYF0Zl-4" value="&lt;font style=&quot;font-size: 18px;&quot;&gt;b_lengths=torch.IntTensor(lengths)&lt;/font&gt;" style="rounded=0;whiteSpace=wrap;html=1;" parent="1" vertex="1">
          <mxGeometry x="280" y="270" width="330" height="50" as="geometry" />
        </mxCell>
        <mxCell id="kiv1RC2_XIZWGXxYF0Zl-9" value="" style="edgeStyle=orthogonalEdgeStyle;rounded=0;orthogonalLoop=1;jettySize=auto;html=1;" parent="1" source="kiv1RC2_XIZWGXxYF0Zl-6" target="kiv1RC2_XIZWGXxYF0Zl-8" edge="1">
          <mxGeometry relative="1" as="geometry" />
        </mxCell>
        <mxCell id="kiv1RC2_XIZWGXxYF0Zl-6" value="&lt;font style=&quot;font-size: 18px;&quot;&gt;b_labels=torch.IntTensor(labels)&lt;/font&gt;" style="rounded=0;whiteSpace=wrap;html=1;" parent="1" vertex="1">
          <mxGeometry x="280" y="350" width="330" height="50" as="geometry" />
        </mxCell>
        <mxCell id="kiv1RC2_XIZWGXxYF0Zl-11" value="" style="edgeStyle=orthogonalEdgeStyle;rounded=0;orthogonalLoop=1;jettySize=auto;html=1;" parent="1" source="kiv1RC2_XIZWGXxYF0Zl-8" target="kiv1RC2_XIZWGXxYF0Zl-10" edge="1">
          <mxGeometry relative="1" as="geometry" />
        </mxCell>
        <mxCell id="kiv1RC2_XIZWGXxYF0Zl-8" value="&lt;span style=&quot;font-size: 18px;&quot;&gt;根据所有的图片宽高比选择合适的imgH和imgW&lt;/span&gt;" style="rounded=0;whiteSpace=wrap;html=1;" parent="1" vertex="1">
          <mxGeometry x="292.5" y="430" width="305" height="60" as="geometry" />
        </mxCell>
        <mxCell id="kiv1RC2_XIZWGXxYF0Zl-13" value="" style="edgeStyle=orthogonalEdgeStyle;rounded=0;orthogonalLoop=1;jettySize=auto;html=1;" parent="1" source="kiv1RC2_XIZWGXxYF0Zl-10" target="kiv1RC2_XIZWGXxYF0Zl-12" edge="1">
          <mxGeometry relative="1" as="geometry" />
        </mxCell>
        <mxCell id="kiv1RC2_XIZWGXxYF0Zl-10" value="&lt;span style=&quot;font-size: 18px;&quot;&gt;将每张照片送入ResizeNormalize()中调整到合适的imgH和imgW&lt;/span&gt;" style="rounded=0;whiteSpace=wrap;html=1;" parent="1" vertex="1">
          <mxGeometry x="292.5" y="520" width="305" height="70" as="geometry" />
        </mxCell>
        <mxCell id="16PYSNdw5GrsSM4lChzJ-3" value="" style="edgeStyle=orthogonalEdgeStyle;rounded=0;orthogonalLoop=1;jettySize=auto;html=1;" edge="1" parent="1" source="kiv1RC2_XIZWGXxYF0Zl-12" target="16PYSNdw5GrsSM4lChzJ-1">
          <mxGeometry relative="1" as="geometry" />
        </mxCell>
        <mxCell id="kiv1RC2_XIZWGXxYF0Zl-12" value="&lt;span style=&quot;font-size: 18px;&quot;&gt;b_imags=torch.stack(images)&lt;/span&gt;" style="rounded=0;whiteSpace=wrap;html=1;" parent="1" vertex="1">
          <mxGeometry x="291.25" y="620" width="307.5" height="55.5" as="geometry" />
        </mxCell>
        <mxCell id="16PYSNdw5GrsSM4lChzJ-5" value="" style="edgeStyle=orthogonalEdgeStyle;rounded=0;orthogonalLoop=1;jettySize=auto;html=1;" edge="1" parent="1" source="16PYSNdw5GrsSM4lChzJ-1" target="16PYSNdw5GrsSM4lChzJ-4">
          <mxGeometry relative="1" as="geometry" />
        </mxCell>
        <mxCell id="16PYSNdw5GrsSM4lChzJ-1" value="&lt;font style=&quot;font-size: 18px;&quot;&gt;返回b_images,b_labels,b_lengths&lt;/font&gt;" style="rounded=0;whiteSpace=wrap;html=1;" vertex="1" parent="1">
          <mxGeometry x="291.25" y="710" width="307.5" height="55.5" as="geometry" />
        </mxCell>
        <mxCell id="16PYSNdw5GrsSM4lChzJ-4" value="&lt;font style=&quot;font-size: 18px;&quot;&gt;end&lt;/font&gt;" style="rounded=1;whiteSpace=wrap;html=1;" vertex="1" parent="1">
          <mxGeometry x="350" y="800" width="190" height="40" as="geometry" />
        </mxCell>
      </root>
    </mxGraphModel>
  </diagram>
</mxfile>
